<?xml version="1.0" encoding="utf-8"?>
<!-- Generator: Adobe Illustrator 24.3.0, SVG Export Plug-In . SVG Version: 6.00 Build 0)  -->
<svg version="1.1" id="Layer_1" xmlns="http://www.w3.org/2000/svg" xmlns:xlink="http://www.w3.org/1999/xlink" x="0px" y="0px"
	 viewBox="0 0 75 75" style="enable-background:new 0 0 75 75;" xml:space="preserve">
<style type="text/css">
	.st0{fill:#BBBBB7;}
	.st1{fill:#FFFFFF;}
	.st2{fill:#353839;}
</style>
<circle class="st0" cx="37.5" cy="37.5" r="37.5"/>
<g>
	<path class="st1" d="M60.3,35.94L38.82,14.46c-0.7-0.7-1.95-0.7-2.65,0L14.7,35.94c-0.7,0.7-0.7,1.87,0,2.65
		c0.7,0.7,1.87,0.7,2.65,0L37.5,18.36L57.65,38.5c0.39,0.39,0.85,0.55,1.32,0.55s0.93-0.15,1.32-0.55
		C60.99,37.81,60.99,36.64,60.3,35.94z"/>
	<path class="st1" d="M20.7,36.79v20.7c0,0.59,0.47,1.06,1.06,1.06h31.5c0.59,0,1.06-0.47,1.06-1.06v-20.7l-16.8-16.8L20.7,36.79z
		 M36.8,36.25v4.97h-4.9v-4.97H36.8z M31.9,42.63h4.9v4.97h-4.9V42.63z M38.2,47.52v-4.97h4.9v4.97H38.2z M43.1,41.23h-4.9v-4.97
		h4.9V41.23z"/>
</g>
<circle class="st2" cx="207.47" cy="740.53" r="22.22"/>
</svg>
