<?xml version="1.0" encoding="utf-8"?>
<!-- Generator: Adobe Illustrator 24.3.0, SVG Export Plug-In . SVG Version: 6.00 Build 0)  -->
<svg version="1.1" id="레이어_1" xmlns="http://www.w3.org/2000/svg" xmlns:xlink="http://www.w3.org/1999/xlink" x="0px"
	 y="0px" viewBox="0 0 232.44 232.44" style="enable-background:new 0 0 232.44 232.44;" xml:space="preserve">
<style type="text/css">
	.st0{fill:#BBBBB7;}
	.st1{fill:#FFFFFF;}
</style>
<g>
	<circle class="st0" cx="116.22" cy="116.22" r="115.03"/>
	<g>
		<g>
			<path class="st1" d="M177.88,91.83H54.56c-4.7,0-8.49,3.81-8.49,8.49v47.73c0,4.7,3.79,8.49,8.49,8.49h24.51v-27.82h74.3v27.82
				h24.51c4.7,0,8.49-3.79,8.49-8.49v-47.73C186.37,95.64,182.58,91.83,177.88,91.83z M60.57,110.02c-2.53,0-4.56-2.03-4.56-4.58
				c0-2.53,2.03-4.56,4.56-4.56c2.53,0,4.58,2.03,4.58,4.56C65.15,107.99,63.09,110.02,60.57,110.02z M175.71,109.88h-13.94v-3.27
				h13.94V109.88z M175.71,104.29h-13.94v-3.27h13.94V104.29z"/>
		</g>
		<g>
			<path class="st1" d="M86.96,51.92h58.52c1.87,0,3.38,1.51,3.38,3.38v31.28H83.58V55.3C83.58,53.43,85.09,51.92,86.96,51.92z"/>
		</g>
		<path class="st1" d="M83.58,133.22v44.23c0,1.7,1.38,3.07,3.07,3.07h59.14c1.7,0,3.07-1.38,3.07-3.07v-44.23H83.58z M141.43,166.1
			H91.01v-4.68h50.41V166.1z M91.01,146.36h50.41v4.68H91.01V146.36z"/>
	</g>
</g>
</svg>
