<?xml version="1.0" encoding="utf-8"?>
<!-- Generator: Adobe Illustrator 24.3.0, SVG Export Plug-In . SVG Version: 6.00 Build 0)  -->
<svg version="1.1" id="Layer_1" xmlns="http://www.w3.org/2000/svg" xmlns:xlink="http://www.w3.org/1999/xlink" x="0px" y="0px"
	 viewBox="0 0 45 32" style="enable-background:new 0 0 45 32;" xml:space="preserve">
<style type="text/css">
	.st0{fill:#F3E9D3;}
</style>
<g>
	<g>
		<path class="st0" d="M42.57,6.11h-1.23V4.39c0-0.22-0.18-0.4-0.4-0.4h-5.66c-0.21,0-0.39,0.18-0.39,0.4v1.71h-3.21l-1.31-5.65
			C30.31,0.19,30.08,0,29.81,0H15.19c-0.27,0-0.5,0.19-0.56,0.45l-1.31,5.65H2.43C1.08,6.11,0,7.2,0,8.54v21.03
			C0,30.9,1.08,32,2.43,32h40.13c1.35,0,2.43-1.1,2.43-2.43V8.54C45,7.2,43.92,6.11,42.57,6.11z M8.65,11.35
			c0,0.12-0.1,0.21-0.22,0.21H2.7c-0.12,0-0.22-0.09-0.22-0.21V8.48c0-0.11,0.1-0.21,0.22-0.21h5.73c0.12,0,0.22,0.1,0.22,0.21
			V11.35z M22.5,30.1c-5.87,0-10.64-4.77-10.64-10.64c0-2.41,0.8-4.62,2.15-6.4c1.95-2.58,5.03-4.24,8.5-4.24s6.55,1.66,8.5,4.24
			c1.35,1.78,2.15,3.99,2.15,6.4C33.14,25.33,28.37,30.1,22.5,30.1z"/>
	</g>
	<g>
		<path class="st0" d="M30.93,19.46c0,4.65-3.78,8.43-8.43,8.43s-8.43-3.78-8.43-8.43c0-2.57,1.15-4.87,2.98-6.4
			c1.47-1.26,3.37-2.02,5.45-2.02s3.98,0.76,5.45,2.02C29.78,14.59,30.93,16.89,30.93,19.46z"/>
	</g>
</g>
</svg>
